<mxfile host="Electron" agent="Mozilla/5.0 (Windows NT 10.0; Win64; x64) AppleWebKit/537.36 (KHTML, like Gecko) draw.io/28.2.5 Chrome/138.0.7204.251 Electron/37.6.1 Safari/537.36" version="28.2.5">
  <diagram name="Overview" id="xMKzCziyLwDH7uehKYuq">
    <mxGraphModel dx="1188" dy="701" grid="0" gridSize="10" guides="1" tooltips="1" connect="1" arrows="1" fold="1" page="0" pageScale="1" pageWidth="850" pageHeight="1100" math="0" shadow="0">
      <root>
        <mxCell id="0" />
        <mxCell id="1" parent="0" />
        <mxCell id="YMT2BxH6UNFQMz35lL0E-11" value="" style="rounded=1;whiteSpace=wrap;html=1;fillColor=none;strokeColor=#B3B3B3;" vertex="1" parent="1">
          <mxGeometry x="326" y="292" width="189" height="322" as="geometry" />
        </mxCell>
        <mxCell id="YMT2BxH6UNFQMz35lL0E-5" style="edgeStyle=orthogonalEdgeStyle;rounded=0;orthogonalLoop=1;jettySize=auto;html=1;" edge="1" parent="1" source="YMT2BxH6UNFQMz35lL0E-1" target="YMT2BxH6UNFQMz35lL0E-3">
          <mxGeometry relative="1" as="geometry" />
        </mxCell>
        <mxCell id="YMT2BxH6UNFQMz35lL0E-1" value="Data storage account&lt;br&gt;(Queue)" style="image;aspect=fixed;html=1;points=[];align=center;fontSize=12;image=img/lib/azure2/storage/Storage_Accounts.svg;" vertex="1" parent="1">
          <mxGeometry x="172" y="354" width="65" height="52" as="geometry" />
        </mxCell>
        <mxCell id="YMT2BxH6UNFQMz35lL0E-2" value="Working Storage&lt;br&gt;Account" style="image;aspect=fixed;html=1;points=[];align=center;fontSize=12;image=img/lib/azure2/storage/Storage_Accounts.svg;" vertex="1" parent="1">
          <mxGeometry x="384" y="480" width="65" height="52" as="geometry" />
        </mxCell>
        <mxCell id="YMT2BxH6UNFQMz35lL0E-4" style="edgeStyle=orthogonalEdgeStyle;rounded=0;orthogonalLoop=1;jettySize=auto;html=1;" edge="1" parent="1" source="YMT2BxH6UNFQMz35lL0E-3" target="YMT2BxH6UNFQMz35lL0E-1">
          <mxGeometry relative="1" as="geometry">
            <Array as="points">
              <mxPoint x="313" y="392" />
              <mxPoint x="313" y="392" />
            </Array>
          </mxGeometry>
        </mxCell>
        <mxCell id="YMT2BxH6UNFQMz35lL0E-6" style="edgeStyle=orthogonalEdgeStyle;rounded=0;orthogonalLoop=1;jettySize=auto;html=1;" edge="1" parent="1" source="YMT2BxH6UNFQMz35lL0E-3" target="YMT2BxH6UNFQMz35lL0E-2">
          <mxGeometry relative="1" as="geometry" />
        </mxCell>
        <mxCell id="YMT2BxH6UNFQMz35lL0E-3" value="LogicApp Standard" style="image;aspect=fixed;html=1;points=[];align=center;fontSize=12;image=img/lib/azure2/integration/Logic_Apps.svg;" vertex="1" parent="1">
          <mxGeometry x="383" y="354" width="67" height="52" as="geometry" />
        </mxCell>
        <mxCell id="YMT2BxH6UNFQMz35lL0E-7" value="" style="image;aspect=fixed;html=1;points=[];align=center;fontSize=12;image=img/lib/azure2/identity/Managed_Identities.svg;" vertex="1" parent="1">
          <mxGeometry x="336" y="349" width="32.97" height="32" as="geometry" />
        </mxCell>
        <mxCell id="YMT2BxH6UNFQMz35lL0E-8" value="" style="image;aspect=fixed;html=1;points=[];align=center;fontSize=12;image=img/lib/azure2/identity/Managed_Identities.svg;" vertex="1" parent="1">
          <mxGeometry x="423" y="437" width="32.97" height="32" as="geometry" />
        </mxCell>
        <mxCell id="YMT2BxH6UNFQMz35lL0E-9" value="" style="rounded=1;whiteSpace=wrap;html=1;fillColor=none;strokeColor=#B3B3B3;" vertex="1" parent="1">
          <mxGeometry x="119" y="292" width="165" height="234" as="geometry" />
        </mxCell>
        <mxCell id="YMT2BxH6UNFQMz35lL0E-10" value="&lt;b&gt;1&lt;/b&gt;" style="text;html=1;align=center;verticalAlign=middle;whiteSpace=wrap;rounded=0;strokeColor=none;" vertex="1" parent="1">
          <mxGeometry x="96" y="265" width="60" height="30" as="geometry" />
        </mxCell>
        <mxCell id="YMT2BxH6UNFQMz35lL0E-12" value="&lt;b&gt;2&lt;/b&gt;" style="text;html=1;align=center;verticalAlign=middle;whiteSpace=wrap;rounded=0;strokeColor=none;" vertex="1" parent="1">
          <mxGeometry x="303" y="265" width="60" height="30" as="geometry" />
        </mxCell>
        <mxCell id="YMT2BxH6UNFQMz35lL0E-16" style="edgeStyle=orthogonalEdgeStyle;rounded=1;orthogonalLoop=1;jettySize=auto;html=1;curved=0;" edge="1" parent="1" source="YMT2BxH6UNFQMz35lL0E-13" target="YMT2BxH6UNFQMz35lL0E-3">
          <mxGeometry relative="1" as="geometry">
            <Array as="points">
              <mxPoint x="541" y="300" />
              <mxPoint x="541" y="380" />
            </Array>
          </mxGeometry>
        </mxCell>
        <mxCell id="YMT2BxH6UNFQMz35lL0E-13" value="AppSettings" style="ellipse;whiteSpace=wrap;html=1;" vertex="1" parent="1">
          <mxGeometry x="567" y="260" width="120" height="80" as="geometry" />
        </mxCell>
        <mxCell id="YMT2BxH6UNFQMz35lL0E-17" style="edgeStyle=orthogonalEdgeStyle;rounded=1;orthogonalLoop=1;jettySize=auto;html=1;curved=0;" edge="1" parent="1" source="YMT2BxH6UNFQMz35lL0E-14" target="YMT2BxH6UNFQMz35lL0E-3">
          <mxGeometry relative="1" as="geometry" />
        </mxCell>
        <mxCell id="YMT2BxH6UNFQMz35lL0E-14" value="Workflows" style="ellipse;whiteSpace=wrap;html=1;" vertex="1" parent="1">
          <mxGeometry x="567" y="340" width="120" height="80" as="geometry" />
        </mxCell>
        <mxCell id="YMT2BxH6UNFQMz35lL0E-18" value="" style="rounded=1;whiteSpace=wrap;html=1;fillColor=none;strokeColor=#B3B3B3;" vertex="1" parent="1">
          <mxGeometry x="528" y="242" width="189" height="219" as="geometry" />
        </mxCell>
        <mxCell id="YMT2BxH6UNFQMz35lL0E-19" value="&lt;b&gt;3&lt;/b&gt;" style="text;html=1;align=center;verticalAlign=middle;whiteSpace=wrap;rounded=0;strokeColor=none;" vertex="1" parent="1">
          <mxGeometry x="511" y="212" width="60" height="30" as="geometry" />
        </mxCell>
      </root>
    </mxGraphModel>
  </diagram>
</mxfile>
